# xmcd CD database file
#
# Track frame offsets:
#	150
#	25558
#	41015
#	61359
#	73184
#	90904
#	98916
#	119866
#	137587
#	155154
#	175965
#	190032
#	211512
#	234870
#	244233
#	258811
#	273247
#	290719
#	315165
#	326449
#	345452
#
# Disc length: 4795 seconds
#
# Revision: 0
# Processed by: cddbd v1.5.2PL0 Copyright (c) Steve Scherf et al.
# Submitted via: CDex 1.79
#
DISCID=2312b915
DTITLE=Nitty Gritty Dirt Band - Jambalaya - The Definitive Collection CD 2
DYEAR=2013
DGENRE=Country
TTITLE0=Will The Circle Be Unbroken (All Star Cast)
TTITLE1=Mr Bojangles
TTITLE2=One Step Over The Line (featuring Rosanna Cash and John Hiatt)
TTITLE3=House At Pooh Corner
TTITLE4=From Small Things (Big Things One Day Come)
TTITLE5=Randy Lynn Rag 
TTITLE6=Life's Railway To Heaven (Circle II)
TTITLE7=Make A Little Magic (featuring Nicolette Larson)
TTITLE8=And So It Goes (featuring John Denver)
TTITLE9=Fire In the Sky
TTITLE10=Baby's Got A Hold On Me (live)
TTITLE11=Stand A Little Rain (live)
TTITLE12=Sixteen Tracks
TTITLE13=The Cure
TTITLE14=Dance Little Jean
TTITLE15=Grand Ole Opry Song (featuring Jimmy Martin)
TTITLE16=Long Hard Road (Sharecropper's Dream) (live) 
TTITLE17=Cadillac Ranch (live)
TTITLE18=Togary Mountain (Will The Circle Be Unbroken I)
TTITLE19=The Valley Road (Circle II)
TTITLE20=Riding Alone (Circle II)
EXTD=YEAR: 2013
EXTT0=
EXTT1=
EXTT2=
EXTT3=
EXTT4=
EXTT5=
EXTT6=
EXTT7=
EXTT8=
EXTT9=
EXTT10=
EXTT11=
EXTT12=
EXTT13=
EXTT14=
EXTT15=
EXTT16=
EXTT17=
EXTT18=
EXTT19=
EXTT20=
PLAYORDER=
